<?xml version="1.0" encoding="utf-8"?>
<!-- Generator: Adobe Illustrator 15.1.0, SVG Export Plug-In . SVG Version: 6.00 Build 0)  -->
<!DOCTYPE svg PUBLIC "-//W3C//DTD SVG 1.1//EN" "http://www.w3.org/Graphics/SVG/1.1/DTD/svg11.dtd">
<svg version="1.1" id="Layer_1" xmlns="http://www.w3.org/2000/svg" xmlns:xlink="http://www.w3.org/1999/xlink" x="0px" y="0px"
	 width="9.125px" height="11.25px" viewBox="0 0 9.125 11.25" enable-background="new 0 0 9.125 11.25" xml:space="preserve">
<path fill-rule="evenodd" clip-rule="evenodd" fill="#FFFFFF" d="M7.091,9.907V6.632c0,0,0.042-1.112-1.007-1.028
	c0,0-0.836-0.017-1.032,1.106v3.197H3.247V4.176h1.805v0.689c0.246-0.364,0.896-1.039,2.207-0.773c0,0,1.658,0.084,1.616,2.498
	v3.317H7.091z M1.299,3.442c-0.58,0-1.05-0.47-1.05-1.049c0-0.579,0.47-1.049,1.05-1.049c0.579,0,1.049,0.47,1.049,1.049
	C2.348,2.972,1.878,3.442,1.299,3.442z M2.223,9.907H0.417V4.176h1.805V9.907z"/>
</svg>
