<?xml version="1.0" encoding="utf-8"?>
<!-- Generator: Adobe Illustrator 15.1.0, SVG Export Plug-In . SVG Version: 6.00 Build 0)  -->
<!DOCTYPE svg PUBLIC "-//W3C//DTD SVG 1.1//EN" "http://www.w3.org/Graphics/SVG/1.1/DTD/svg11.dtd">
<svg version="1.1" id="Layer_1" xmlns="http://www.w3.org/2000/svg" xmlns:xlink="http://www.w3.org/1999/xlink" x="0px" y="0px"
	 width="15.756px" height="16.551px" viewBox="0 0 15.756 16.551" enable-background="new 0 0 15.756 16.551" xml:space="preserve">
<path fill-rule="evenodd" clip-rule="evenodd" fill="#86878B" d="M14.987,15.774c-0.799,0.799-2.095,0.799-2.895,0l-2.896-2.897
	c-0.08-0.079-0.115-0.18-0.179-0.269c-0.743,0.299-1.549,0.472-2.397,0.472c-3.563,0-6.451-2.888-6.451-6.451
	s2.888-6.452,6.451-6.452c3.562,0,6.451,2.889,6.451,6.452c0,1.237-0.366,2.382-0.97,3.364l2.886,2.886
	C15.787,13.678,15.787,14.974,14.987,15.774z M6.621,2.769c-2.132,0-3.861,1.728-3.861,3.86c0,2.132,1.729,3.86,3.861,3.86
	s3.86-1.728,3.86-3.86C10.481,4.497,8.752,2.769,6.621,2.769z"/>
</svg>
