<?xml version="1.0" encoding="utf-8"?>
<!-- Generator: Adobe Illustrator 15.1.0, SVG Export Plug-In . SVG Version: 6.00 Build 0)  -->
<!DOCTYPE svg PUBLIC "-//W3C//DTD SVG 1.1//EN" "http://www.w3.org/Graphics/SVG/1.1/DTD/svg11.dtd">
<svg version="1.1" id="Layer_1" xmlns="http://www.w3.org/2000/svg" xmlns:xlink="http://www.w3.org/1999/xlink" x="0px" y="0px"
	 width="72.389px" height="58.494px" viewBox="0 0 72.389 58.494" enable-background="new 0 0 72.389 58.494" xml:space="preserve">
<path fill-rule="evenodd" clip-rule="evenodd" fill="none" stroke="#FFFFFF" stroke-miterlimit="10" d="M37.628,20.254
	l-12.355-4.171c6.9-3.691,12.995-4.012,12.995-4.012c2.088-0.241,1.365-2.327,1.365-2.327c-0.562-0.722-2.647-0.401-2.647-0.401
	l-4.733,0.803c-12.274,2.728-13.556,8.584-13.556,8.584c1.602,0.241,0.881,2.085,0.881,2.085c-0.081,2.005-1.765,1.844-1.765,1.844
	c0.723,11.392-1.685,14.923-1.685,14.923c-2.086,3.288-5.615,2.726-5.615,2.726l-3.61-2.967c7.542-2.407,8.826-15.162,8.826-15.162
	c-1.206-0.561-1.125-1.846-1.125-1.846c-0.081-2.245,1.846-2.406,2.248-2.968c0.402-0.561,1.364-3.209,1.364-3.209L9.71,11.59
	c-1.364-0.641-0.322-1.926-0.322-1.926L38.51,0.76l27.274,8.584c2.167,0.562,0.32,2.247,0.32,2.247L37.628,20.254z M38.59,34.773
	c0,0-10.429,0.562-16.285-8.021c0,0,0.322-4.734,2.006-7.861l13.557,4.331l14.118-4.171c0,0,2.486,7.702,0.723,9.385
	C50.944,30.122,45.088,35.016,38.59,34.773z M34.113,40.623L34.113,40.623c1.514-0.096,3.074-0.21,4.668-0.335
	c7.86-0.623,16.647-1.625,25.85-3.223c0,0,6.011,2.146,4.009,10.378l-3.15,0.144l-20.043,1.86l20.471-0.284l0.862,3.148
	c0,0-12.954,0.774-26.511,1.843c-0.225,0.019-0.449,0.036-0.673,0.054C27.626,55.16,15.35,56.33,11.227,57.396
	c0,0-2.147-1.434-2.147-3.579c0,0,18.612-1.789,20.902-2.579c0,0-22.979,1.717-24.912,1.576c0,0-4.078-5.87,0.289-11.813
	C5.36,41,17.023,41.709,34.113,40.623z"/>
</svg>
