<?xml version="1.0" encoding="utf-8"?>
<!-- Generator: Adobe Illustrator 15.1.0, SVG Export Plug-In . SVG Version: 6.00 Build 0)  -->
<!DOCTYPE svg PUBLIC "-//W3C//DTD SVG 1.1//EN" "http://www.w3.org/Graphics/SVG/1.1/DTD/svg11.dtd">
<svg version="1.1" id="Layer_1" xmlns="http://www.w3.org/2000/svg" xmlns:xlink="http://www.w3.org/1999/xlink" x="0px" y="0px"
	 width="72.389px" height="58.494px" viewBox="0 0 72.389 58.494" enable-background="new 0 0 72.389 58.494" xml:space="preserve">
<path fill-rule="evenodd" clip-rule="evenodd" fill="none" stroke="#FFFFFF" stroke-miterlimit="10" d="M62.8,32.466
	c-4.13,0.251-6.634-2.878-4.756-9.136c1.877-6.257,5.506-5.381,5.506-5.381s3.178-0.517,5.382,3.755
	C71.534,26.742,66.929,32.216,62.8,32.466z M65.803,34.721c4.129,0.749,3.755,5.756,3.755,5.756v16.771H47.53l7.76-5.507h3.505
	c-2.503-3.255-2.503-10.138-2.503-10.138C56.778,33.723,65.803,34.721,65.803,34.721z M42.937,56.996H29.295l-8.003-5.751
	l4.32-22.033h20.948l4.381,21.784L42.937,56.996z M26.04,19.2c1.503-2.127,5.632-3.755,5.632-3.755l3.504,6.132l0.376-3.128
	l-0.376-0.876c-0.25-1.627,1.878-1.126,1.878-1.126c1.25,0.375,0,2.002,0,2.002l0.876,2.503l2.878-5.381
	c3.129,0.25,5.507,3.504,5.507,3.504v6.882H26.04V19.2z M36.303,15.445c-3.63-0.875-5.256-5.756-5.256-5.756
	c-1.378-8.511,4.88-8.761,4.88-8.761c6.883,0.875,5.381,8.26,5.381,8.26C40.306,14.319,36.303,15.445,36.303,15.445z M24.789,57.247
	H2.761V40.477c0,0-0.375-5.007,3.756-5.756c0,0,8.556-1.231,9.511,6.882c0,0,0,6.883-2.503,10.138h3.505L24.789,57.247z
	 M9.521,32.466c-4.13-0.25-8.555-5.635-6.134-10.762c2.128-4.506,5.383-3.755,5.383-3.755s3.785-0.096,5.506,5.381
	C16.234,29.563,13.65,32.717,9.521,32.466z"/>
</svg>
