<?xml version="1.0" encoding="utf-8"?>
<!-- Generator: Adobe Illustrator 15.1.0, SVG Export Plug-In . SVG Version: 6.00 Build 0)  -->
<!DOCTYPE svg PUBLIC "-//W3C//DTD SVG 1.1//EN" "http://www.w3.org/Graphics/SVG/1.1/DTD/svg11.dtd">
<svg version="1.1" id="Layer_1" xmlns="http://www.w3.org/2000/svg" xmlns:xlink="http://www.w3.org/1999/xlink" x="0px" y="0px"
	 width="72.389px" height="58.494px" viewBox="0 0 72.389 58.494" enable-background="new 0 0 72.389 58.494" xml:space="preserve">
<g>
	<g>
		<path fill="none" stroke="#FFFFFF" stroke-width="1.0649" stroke-miterlimit="10" d="M46.809,38.263
			c-1.999-0.143-5.282-0.715-7.994-5.711c-2.715-4.998,1.71-10.137,1.71-10.137c-0.142-0.571-5.28-5.14-5.28-5.14
			c-7.996,5.71-13.992-2.142-13.992-2.142c-6.282,0.856-9.565,3.426-9.565,3.426C5.261,22.985,4.119,37.12,4.119,37.12
			c-3.426,0.428-2.712,3.57-2.712,3.57c0.429,5.283,6.853,7.996,6.853,7.996l15.135,6.85c9.423,4.285,23.556-0.57,23.556-0.57
			c7.57-1.996,4.713-8.279,4.427-9.277C51.091,44.688,46.809,38.263,46.809,38.263z M71.436,22.013
			c-0.191-0.96-2.035-1.498-4.864-1.594c-0.113-0.255-0.235-0.507-0.367-0.752c1.648-2.301,2.343-4.089,1.698-4.825
			c-0.646-0.736-2.511-0.281-5.012,1.052c-0.225-0.164-0.454-0.317-0.691-0.464c0.277-2.819-0.016-4.717-0.941-5.032
			c-0.927-0.316-2.312,1.01-3.812,3.412c-0.275-0.028-0.557-0.043-0.837-0.051c-1.169-2.58-2.368-4.077-3.331-3.887
			c-0.96,0.191-1.497,2.034-1.594,4.864c-0.256,0.114-0.509,0.234-0.752,0.366c-2.303-1.647-4.09-2.342-4.826-1.698
			c-0.733,0.646-0.279,2.511,1.054,5.01c-0.163,0.226-0.318,0.458-0.463,0.693c-2.819-0.277-4.72,0.015-5.034,0.942
			c-0.313,0.926,1.011,2.312,3.412,3.811c-0.028,0.276-0.043,0.555-0.051,0.835c-2.581,1.169-4.078,2.371-3.887,3.331
			c0.19,0.959,2.033,1.498,4.862,1.594c0.114,0.256,0.235,0.508,0.367,0.752c-1.646,2.301-2.344,4.089-1.697,4.824
			c0.646,0.736,2.51,0.281,5.012-1.051c0.225,0.162,0.455,0.317,0.691,0.463c-0.277,2.82,0.016,4.719,0.941,5.033
			c0.927,0.315,2.312-1.011,3.812-3.412c0.276,0.027,0.556,0.043,0.835,0.051c1.169,2.58,2.371,4.078,3.33,3.889
			c0.961-0.191,1.498-2.033,1.598-4.865c0.254-0.115,0.505-0.234,0.751-0.365c2.299,1.646,4.088,2.342,4.823,1.697
			c0.736-0.646,0.28-2.512-1.053-5.011c0.164-0.226,0.317-0.457,0.464-0.692c2.819,0.277,4.717-0.016,5.032-0.943
			c0.315-0.926-1.011-2.312-3.413-3.81c0.03-0.275,0.047-0.555,0.054-0.834C70.128,24.175,71.627,22.973,71.436,22.013z
			 M57.201,29.63c-2.547,0.506-5.021-1.149-5.528-3.695c-0.505-2.547,1.15-5.021,3.697-5.527c2.547-0.505,5.023,1.15,5.527,3.696
			C61.403,26.65,59.748,29.125,57.201,29.63z M24.967,11.774c0.15,0.26,0.319,0.504,0.508,0.732
			c-0.733,1.783-0.918,3.12-0.368,3.488c0.558,0.373,1.751-0.335,3.147-1.738c0.247,0.063,0.498,0.107,0.755,0.133
			c0.753,1.841,1.588,2.962,2.248,2.83c0.672-0.132,1.015-1.519,0.999-3.553c0.191-0.114,0.372-0.24,0.545-0.375
			c1.875,0.798,3.294,1.015,3.673,0.446c0.383-0.57-0.365-1.803-1.827-3.237c0.056-0.205,0.098-0.414,0.128-0.626
			c1.898-0.764,3.062-1.615,2.927-2.288c-0.132-0.667-1.507-1.009-3.526-0.997c-0.113-0.208-0.24-0.407-0.379-0.595
			c0.779-1.852,0.987-3.248,0.424-3.624c-0.556-0.372-1.737,0.326-3.122,1.711C30.834,4,30.562,3.94,30.288,3.901
			c-0.747-1.798-1.566-2.887-2.22-2.757c-0.646,0.128-0.987,1.414-0.998,3.318c-0.277,0.148-0.539,0.318-0.783,0.509
			c-1.758-0.715-3.071-0.891-3.436-0.345c-0.363,0.542,0.295,1.684,1.62,3.029c-0.09,0.306-0.152,0.621-0.186,0.943
			c-1.741,0.735-2.789,1.538-2.661,2.178C21.753,11.425,23.049,11.766,24.967,11.774z M29.222,6.961
			c1.226-0.244,2.418,0.553,2.661,1.78c0.244,1.226-0.555,2.418-1.779,2.662c-1.227,0.243-2.418-0.554-2.663-1.781
			C27.198,8.396,27.995,7.205,29.222,6.961z"/>
	</g>
</g>
<g>
	<g>
		<path fill="none" stroke="#FFFFFF" stroke-width="0.9915" stroke-miterlimit="10" d="M28.6,23.303l-4.428,1.57
			c11.707,7.282,10.424,21.274,10.424,21.274l4.426-1.998C39.593,30.583,28.6,23.303,28.6,23.303z M4.185,43.578l4.712,3.14
			l1.427-4.283l-4.568-3.141L4.185,43.578z"/>
	</g>
</g>
</svg>
