<?xml version="1.0" encoding="utf-8"?>
<!-- Generator: Adobe Illustrator 15.1.0, SVG Export Plug-In . SVG Version: 6.00 Build 0)  -->
<!DOCTYPE svg PUBLIC "-//W3C//DTD SVG 1.1//EN" "http://www.w3.org/Graphics/SVG/1.1/DTD/svg11.dtd">
<svg version="1.1" id="Layer_1" xmlns="http://www.w3.org/2000/svg" xmlns:xlink="http://www.w3.org/1999/xlink" x="0px" y="0px"
	 width="31.001px" height="6.808px" viewBox="0 0 31.001 6.808" enable-background="new 0 0 31.001 6.808" xml:space="preserve">
<path fill-rule="evenodd" clip-rule="evenodd" fill="#FFFFFF" d="M0.129,2.834c0,0,1.942-0.378,3.566-0.462
	c0,0,0.637-0.092,0.609,0.466c0,0-0.009,0.337-0.111,0.803l-0.623,2.99c0,0-1.398-0.23-2.459-1.158c0,0-0.711-0.559-0.96-1.399
	C0.152,4.076-0.033,3.49,0.129,2.834z M0.355,2.299c0,0,0.706-0.258,3.488-0.563c0,0,0.784-0.032,0.881-0.023
	c0,0,0.24,0.046,0.263,0.291v4.804h0.452V2.004c0,0-0.014-0.258,0.309-0.295c0,0,0.729-0.051,2.64,0.254
	c0,0,1.352,0.212,1.693,0.328c0,0-0.489-1.126-2.219-1.804c0,0-1.153-0.549-2.99-0.48c0,0-1.366,0.009-2.593,0.6
	C2.279,0.605,0.844,1.224,0.355,2.299z M10.311,2.834c0,0-1.942-0.378-3.566-0.462c0,0-0.637-0.092-0.609,0.466
	c0,0,0.009,0.337,0.111,0.803l0.623,2.99c0,0,1.398-0.23,2.459-1.158c0,0,0.71-0.559,0.959-1.399
	C10.288,4.076,10.472,3.49,10.311,2.834z M12.637,1.132h4.407v1.315h-1.292v3.235h-1.823V2.447h-1.292V1.132z M18.335,1.132h1.938
	l1.739,4.541h-1.781l-0.928-2.709l-0.927,2.714h-1.776L18.335,1.132z M21.562,1.132h4.407v1.315h-1.292v3.235h-1.822V2.447h-1.292
	V1.132z M27.26,1.132h1.938l1.74,4.541h-1.781l-0.928-2.709l-0.927,2.714h-1.776L27.26,1.132z"/>
</svg>
