<?xml version="1.0" encoding="utf-8"?>
<!-- Generator: Adobe Illustrator 15.1.0, SVG Export Plug-In . SVG Version: 6.00 Build 0)  -->
<!DOCTYPE svg PUBLIC "-//W3C//DTD SVG 1.1//EN" "http://www.w3.org/Graphics/SVG/1.1/DTD/svg11.dtd">
<svg version="1.1" id="Layer_1" xmlns="http://www.w3.org/2000/svg" xmlns:xlink="http://www.w3.org/1999/xlink" x="0px" y="0px"
	 width="52.137px" height="2.651px" viewBox="0 0 52.137 2.651" enable-background="new 0 0 52.137 2.651" xml:space="preserve">
<g>
	<path fill-rule="evenodd" clip-rule="evenodd" fill="#FFFFFF" d="M8.789,1.074L8.267,2.608H7.266l0.981-2.566h1.084l0.981,2.566
		H9.312 M7.512,0.78V0.042H5.034V0.78H5.76v1.828h1.025V0.78H7.512z M3.756,1.074L3.233,2.608H2.232l0.982-2.566h1.084l0.981,2.566
		H4.278L3.756,1.074z M2.478,0.78V0.042H0V0.78h0.727v1.828h1.024V0.78H2.478z"/>
	<path fill-rule="evenodd" clip-rule="evenodd" fill="#FFFFFF" d="M41.369,0.414c0.047-0.012,0.142-0.023,0.289-0.023
		c0.301,0.001,0.496,0.131,0.496,0.409c0,0.252-0.194,0.419-0.51,0.419h-0.275 M35.045,2.608V1.527l0.853-1.485h-0.529L35.06,0.699
		c-0.087,0.187-0.159,0.346-0.222,0.51h-0.007c-0.071-0.174-0.137-0.32-0.224-0.509l-0.305-0.658h-0.536l0.812,1.498v1.068H35.045z
		 M33.52,2.163c-0.124,0.056-0.322,0.093-0.511,0.093c-0.564,0-0.894-0.358-0.894-0.924c0-0.617,0.376-0.944,0.899-0.944
		c0.209,0,0.381,0.046,0.5,0.1l0.102-0.373c-0.095-0.051-0.313-0.113-0.622-0.113c-0.784,0-1.374,0.509-1.374,1.354
		c0,0.781,0.497,1.293,1.311,1.293c0.311,0,0.555-0.061,0.666-0.117L33.52,2.163z M29.614,2.608V1.69
		c0-0.421-0.007-0.76-0.025-1.093l0.012-0.002c0.126,0.291,0.294,0.605,0.46,0.885l0.67,1.129h0.485V0.042h-0.433v0.895
		c0,0.392,0.009,0.723,0.042,1.063l-0.009,0.002c-0.118-0.278-0.267-0.577-0.437-0.859l-0.663-1.102H29.18v2.566H29.614z
		 M27.35,1.529l0.198-0.634c0.045-0.153,0.085-0.331,0.122-0.481h0.008c0.039,0.148,0.082,0.324,0.13,0.482l0.202,0.633H27.35z
		 M28.088,1.883l0.232,0.725h0.503L27.99,0.042h-0.597L26.57,2.608h0.485l0.219-0.725H28.088z M25.531,2.608H26V0.436h0.74V0.042
		h-1.942v0.394h0.733V2.608z M23.534,2.608h1.524V2.215h-1.056V0.042h-0.469V2.608z M20.995,0.042V1.51
		c0,0.807,0.386,1.141,0.978,1.141c0.62,0,1.027-0.353,1.027-1.143V0.042h-0.469v1.496c0,0.503-0.203,0.735-0.541,0.735
		c-0.318,0-0.526-0.233-0.526-0.735V0.042H20.995z M18.91,2.485c0.14,0.086,0.422,0.164,0.693,0.164
		c0.663,0,0.974-0.359,0.974-0.772c0-0.369-0.215-0.593-0.66-0.763c-0.343-0.13-0.491-0.224-0.491-0.42
		c0-0.151,0.126-0.309,0.424-0.309c0.241,0,0.42,0.073,0.513,0.122l0.112-0.378c-0.134-0.068-0.337-0.127-0.615-0.127
		c-0.557,0-0.908,0.316-0.908,0.737c0,0.368,0.271,0.595,0.695,0.746C19.97,1.603,20.1,1.716,20.1,1.91
		c0,0.21-0.168,0.35-0.466,0.35c-0.239,0-0.469-0.076-0.62-0.164L18.91,2.485z M16.881,2.608V1.69c0-0.421-0.006-0.76-0.025-1.093
		l0.012-0.002c0.126,0.291,0.294,0.605,0.46,0.885l0.67,1.129h0.485V0.042h-0.434v0.895c0,0.392,0.009,0.723,0.042,1.063
		l-0.009,0.002c-0.119-0.278-0.267-0.577-0.438-0.859l-0.663-1.102h-0.536v2.566H16.881z M14.834,2.275
		c-0.448,0-0.71-0.431-0.709-0.942c0-0.511,0.247-0.958,0.714-0.958s0.708,0.458,0.708,0.941c0,0.537-0.256,0.958-0.709,0.958
		H14.834z M14.822,2.651c0.703,0,1.224-0.492,1.224-1.352c0-0.733-0.442-1.299-1.19-1.299c-0.725,0-1.222,0.556-1.222,1.345
		c0,0.751,0.458,1.306,1.184,1.306H14.822z M13.4,2.163c-0.124,0.056-0.321,0.093-0.511,0.093c-0.564,0-0.894-0.358-0.894-0.924
		c0-0.617,0.376-0.944,0.9-0.944c0.209,0,0.381,0.046,0.5,0.1l0.102-0.373c-0.095-0.051-0.312-0.113-0.622-0.113
		c-0.785,0-1.374,0.509-1.374,1.354c0,0.781,0.496,1.293,1.311,1.293c0.31,0,0.555-0.061,0.666-0.117L13.4,2.163z M40.907,2.606
		h0.461V1.559h0.234c0.264,0.006,0.385,0.114,0.458,0.446c0.071,0.317,0.132,0.527,0.171,0.601h0.478
		c-0.051-0.099-0.12-0.391-0.201-0.71c-0.064-0.248-0.171-0.423-0.355-0.493V1.393c0.24-0.085,0.462-0.309,0.462-0.637
		c0-0.218-0.079-0.395-0.219-0.511C42.226,0.102,41.93,0.04,41.612,0.04c-0.318,0-0.528,0.022-0.705,0.055V2.606z M36.858,2.483
		c0.141,0.086,0.422,0.164,0.694,0.164c0.663,0,0.973-0.359,0.973-0.772c0-0.369-0.214-0.592-0.66-0.763
		c-0.342-0.131-0.491-0.223-0.491-0.42c0-0.151,0.126-0.309,0.424-0.309c0.241,0,0.42,0.073,0.513,0.122l0.112-0.378
		C38.289,0.059,38.085,0,37.807,0c-0.556,0-0.908,0.316-0.908,0.737c0,0.368,0.271,0.595,0.695,0.746
		c0.324,0.118,0.454,0.232,0.454,0.426c0,0.21-0.167,0.35-0.466,0.35c-0.239,0-0.469-0.076-0.62-0.164L36.858,2.483z M40.382,1.085
		h-0.967V0.426h1.025V0.04h-1.494v2.566h1.55V2.221h-1.081V1.468h0.967V1.085z M44.214,2.606l0.888-2.566h-0.499l-0.375,1.174
		c-0.099,0.312-0.193,0.625-0.261,0.928h-0.008c-0.067-0.31-0.154-0.61-0.251-0.935l-0.35-1.167h-0.512l0.831,2.566H44.214z
		 M45.377,0.04v2.566h0.469V0.04H45.377z M48.148,2.161c-0.124,0.056-0.322,0.094-0.512,0.094c-0.564,0-0.894-0.359-0.894-0.924
		c0-0.617,0.376-0.943,0.9-0.943c0.209,0,0.381,0.046,0.5,0.1l0.103-0.373C48.15,0.062,47.932,0,47.623,0
		c-0.784,0-1.374,0.51-1.374,1.354c0,0.781,0.497,1.293,1.311,1.293c0.311,0,0.555-0.061,0.666-0.117L48.148,2.161z M50.057,1.085
		H49.09V0.426h1.025V0.04h-1.494v2.566h1.55V2.221H49.09V1.468h0.967V1.085z M50.47,2.483c0.14,0.086,0.422,0.164,0.694,0.164
		c0.662,0,0.973-0.359,0.973-0.772c0-0.369-0.214-0.592-0.66-0.763c-0.343-0.131-0.491-0.223-0.491-0.42
		c0-0.151,0.126-0.309,0.423-0.309c0.241,0,0.421,0.073,0.513,0.122l0.112-0.378C51.901,0.059,51.697,0,51.419,0
		c-0.557,0-0.908,0.316-0.908,0.737c0,0.368,0.271,0.595,0.695,0.746C51.53,1.6,51.66,1.715,51.66,1.908
		c0,0.21-0.167,0.35-0.466,0.35c-0.239,0-0.469-0.076-0.621-0.164L50.47,2.483z"/>
</g>
</svg>
