<?xml version="1.0" encoding="utf-8"?>
<!-- Generator: Adobe Illustrator 15.1.0, SVG Export Plug-In . SVG Version: 6.00 Build 0)  -->
<!DOCTYPE svg PUBLIC "-//W3C//DTD SVG 1.1//EN" "http://www.w3.org/Graphics/SVG/1.1/DTD/svg11.dtd">
<svg version="1.1" id="Layer_1" xmlns="http://www.w3.org/2000/svg" xmlns:xlink="http://www.w3.org/1999/xlink" x="0px" y="0px"
	 width="9.125px" height="11.25px" viewBox="0 0 9.125 11.25" enable-background="new 0 0 9.125 11.25" xml:space="preserve">
<path fill="#FFFFFF" d="M8.769,2.095c0,0-0.301,0.384-1.188,0.519c0,0-0.869-0.971-2.174-0.369c0,0-1.154,0.569-0.886,2.041
	c0,0-2.124,0.1-3.78-1.957c0,0-0.785,1.388,0.586,2.458c0,0-0.302,0.083-0.853-0.234c0,0,0.018,1.405,1.522,1.821
	c0,0-0.418,0.118-0.904,0c0,0,0.452,1.29,1.79,1.239c0,0-0.986,0.953-2.742,0.77c0,0,1.788,1.305,4.365,0.619
	c0,0,3.479-1.055,3.562-5.167c0,0,0.636-0.52,0.92-0.937c0,0-0.635,0.334-1.037,0.285C7.948,3.183,8.751,2.463,8.769,2.095z"/>
</svg>
