<?xml version="1.0" encoding="utf-8"?>
<!-- Generator: Adobe Illustrator 15.1.0, SVG Export Plug-In . SVG Version: 6.00 Build 0)  -->
<!DOCTYPE svg PUBLIC "-//W3C//DTD SVG 1.1//EN" "http://www.w3.org/Graphics/SVG/1.1/DTD/svg11.dtd">
<svg version="1.1" id="Layer_1" xmlns="http://www.w3.org/2000/svg" xmlns:xlink="http://www.w3.org/1999/xlink" x="0px" y="0px"
	 width="9.125px" height="11.25px" viewBox="0 0 9.125 11.25" enable-background="new 0 0 9.125 11.25" xml:space="preserve">
<path fill="#FFFFFF" d="M8.871,9.848c0,0-0.062,1.09-1.776,1.141c0,0-4.394,0.221-5.577-0.07c0,0-1.278-0.115-1.341-1.445
	c0,0-0.062-1.309,0.053-2.98c0,0,0.052-1.039,1.101-1.153c0,0,3.293-0.353,6.522,0.011c0,0,0.998,0.093,1.08,1.215
	C8.934,6.564,9.037,8.808,8.871,9.848z M2.705,6.355H1.084v0.461h0.562v3.055h0.5V6.816h0.56V6.355H2.705z M4.462,7.27H3.957v1.987
	L3.758,9.398c-0.199,0.131-0.24-0.051-0.24-0.051v-2.07H3.02v2.262c0.042,0.355,0.331,0.373,0.331,0.373
	c0.307,0.041,0.622-0.348,0.622-0.348V9.83h0.488L4.462,7.27L4.462,7.27z M6.314,7.654c0,0-0.048-0.32-0.405-0.396
	c0,0-0.356-0.024-0.585,0.304V6.374H4.863v3.517h0.461V9.627C5.37,9.68,5.589,9.908,5.938,9.918c0,0,0.32-0.027,0.377-0.396V7.654z
	 M8.087,9.041H7.615v0.292c0,0-0.01,0.208-0.208,0.179c0,0-0.226,0.085-0.311-0.188l0.01-0.707h0.962V7.759
	c0,0-0.011-0.489-0.718-0.565c0,0-0.527,0-0.707,0.621v1.471c0,0,0.038,0.633,0.764,0.67C7.407,9.955,8.134,9.975,8.087,9.041z
	 M7.36,7.607c0.263,0.013,0.238,0.35,0.238,0.35v0.264H7.106V7.938C7.144,7.59,7.36,7.607,7.36,7.607z M5.645,9.512
	c0,0-0.171,0.025-0.32-0.222V7.721c0,0,0.198-0.227,0.377-0.142c0,0,0.113,0.028,0.133,0.217V9.37
	C5.834,9.371,5.844,9.503,5.645,9.512z M6.813,3.782c0,0-0.356,0.442-0.707,0.396c0,0-0.329-0.019-0.377-0.424V1.181h0.565v2.356
	c0,0,0.048,0.207,0.272,0.057l0.228-0.161V1.171h0.574v2.913H6.813V3.782z M4.411,4.215C3.964,4.215,3.6,3.852,3.6,3.404V1.896
	c0-0.448,0.363-0.811,0.811-0.811c0.448,0,0.811,0.363,0.811,0.811v1.508C5.222,3.852,4.859,4.215,4.411,4.215z M4.684,1.878
	c0-0.151-0.122-0.273-0.273-0.273c-0.151,0-0.273,0.122-0.273,0.273v1.518c0,0.151,0.122,0.273,0.273,0.273
	c0.151,0,0.273-0.123,0.273-0.273V1.878z M2.771,4.074H2.129v-1.64l-0.81-2.243h0.707l0.405,1.574l0.405-1.583h0.717L2.771,2.406
	V4.074z"/>
</svg>
